<?xml version="1.0" standalone="no"?>
<!DOCTYPE svg PUBLIC "-//W3C//DTD SVG 20010904//EN"
 "http://www.w3.org/TR/2001/REC-SVG-20010904/DTD/svg10.dtd">
<svg version="1.0" xmlns="http://www.w3.org/2000/svg"
 width="1615.000000pt" height="371.000000pt" viewBox="0 0 1615.000000 371.000000"
 preserveAspectRatio="xMidYMid meet">

<g transform="translate(0.000000,371.000000) scale(0.100000,-0.100000)"
fill="#000000" stroke="none">
<path d="M3840 3223 l0 -488 -247 -100 c-136 -55 -250 -101 -255 -103 -4 -2
-8 165 -8 372 l0 376 -215 0 -215 0 0 -395 c0 -217 -2 -395 -4 -395 -10 0
-364 51 -383 55 l-23 5 0 285 0 285 -215 0 -215 0 0 -327 -1 -328 -194 -127
-195 -127 0 324 0 325 -215 0 -215 0 0 -400 c0 -220 -2 -400 -5 -400 -3 0 -89
-18 -191 -40 -103 -22 -188 -40 -190 -40 -2 0 -4 88 -4 195 l0 195 -215 0
-215 0 0 -279 0 -279 -200 -163 c-110 -90 -200 -167 -200 -171 0 -4 12 -21 28
-38 l27 -30 170 139 170 140 3 -120 3 -119 214 0 215 0 2 218 3 217 190 41
190 41 3 -249 2 -248 215 0 215 0 0 315 0 316 190 124 c104 69 192 125 195
125 3 0 5 -200 5 -445 l0 -445 215 0 215 0 0 498 0 499 193 -28 c105 -16 198
-29 205 -29 9 0 12 -101 12 -470 l0 -470 215 0 215 0 2 486 3 485 244 100
c135 54 248 99 253 99 4 0 8 -261 8 -580 l0 -580 215 0 215 0 0 1120 0 1120
-215 0 -215 0 0 -487z m-3193 -1259 c-3 -3 -12 -4 -19 -1 -8 3 -5 6 6 6 11 1
17 -2 13 -5z m0 -110 c-3 -3 -12 -4 -19 -1 -8 3 -5 6 6 6 11 1 17 -2 13 -5z"/>
<path d="M8598 2540 c-125 -21 -217 -79 -260 -163 -50 -98 -30 -245 44 -319
49 -49 166 -105 298 -143 180 -52 228 -83 237 -153 7 -50 -17 -96 -60 -119
-41 -21 -168 -29 -226 -13 -56 15 -99 60 -107 111 l-7 39 -117 0 -117 0 7 -52
c20 -142 107 -231 267 -273 74 -19 249 -19 332 0 172 41 261 145 261 305 0
172 -80 255 -315 330 -225 71 -277 98 -290 153 -4 16 -2 41 6 58 25 63 166 90
254 50 48 -22 65 -41 74 -84 l7 -32 117 -3 117 -3 0 25 c0 98 -89 215 -192
254 -103 38 -222 50 -330 32z"/>
<path d="M4494 2531 c-2 -2 -4 -247 -4 -543 l0 -538 240 0 c180 0 260 4 318
16 270 55 414 259 399 564 -11 211 -91 352 -245 433 -108 57 -164 65 -450 69
-140 2 -256 1 -258 -1z m531 -212 c109 -41 166 -118 187 -254 23 -148 -21
-295 -110 -362 -60 -46 -99 -55 -249 -60 l-133 -5 0 349 c0 192 3 353 8 357
15 16 237 -3 297 -25z"/>
<path d="M5893 2528 c-5 -7 -83 -218 -173 -468 -89 -250 -175 -490 -191 -533
l-29 -78 122 3 121 3 40 118 39 117 194 0 194 0 37 -120 38 -120 118 0 c64 0
117 1 117 3 0 2 -87 246 -194 543 l-194 539 -115 3 c-84 2 -117 -1 -124 -10z
m253 -630 c5 -17 -6 -18 -130 -18 -75 0 -136 3 -136 7 0 3 30 99 67 212 l66
206 64 -195 c35 -107 66 -203 69 -212z"/>
<path d="M6467 2533 c-4 -3 -7 -48 -7 -100 l0 -93 145 0 145 0 0 -445 0 -445
115 0 115 0 0 445 0 444 143 3 142 3 3 98 3 97 -399 0 c-219 0 -402 -3 -405
-7z"/>
<path d="M7595 2530 c-9 -15 -385 -1061 -385 -1072 0 -5 53 -7 117 -6 l116 3
40 118 39 117 196 -2 196 -3 36 -115 36 -115 117 -3 c64 -1 117 1 117 5 0 4
-87 249 -193 543 l-193 535 -116 3 c-75 2 -119 -1 -123 -8z m190 -434 c36
-112 65 -206 65 -210 0 -3 -61 -6 -136 -6 -105 0 -135 3 -132 13 3 6 33 101
68 210 35 108 65 197 66 197 2 0 32 -92 69 -204z"/>
<path d="M9340 1995 l0 -545 365 0 365 0 0 95 0 95 -250 0 -250 0 0 135 0 135
225 0 225 0 0 95 0 95 -225 0 -225 0 0 125 0 125 250 0 251 0 -3 93 -3 92
-362 3 -363 2 0 -545z"/>
<path d="M10170 2445 l0 -94 143 -3 142 -3 3 -447 2 -448 115 0 115 0 0 450 0
450 140 0 140 0 0 95 0 95 -400 0 -400 0 0 -95z"/>
<path d="M11460 1996 l0 -546 110 0 110 0 2 384 3 385 125 -210 124 -209 72 0
72 0 124 214 123 214 3 -389 2 -389 115 0 115 0 -2 543 -3 542 -70 3 c-38 1
-96 -1 -128 -5 l-59 -8 -141 -243 c-108 -186 -144 -240 -152 -229 -5 8 -71
118 -145 245 l-135 231 -95 1 c-52 0 -112 3 -132 6 l-38 7 0 -547z"/>
<path d="M12720 2533 c0 -6 73 -122 162 -259 89 -137 161 -253 161 -259 0 -5
-79 -133 -176 -283 -98 -150 -177 -275 -177 -278 0 -2 57 -3 126 -2 l127 3
114 185 c63 102 115 186 117 187 1 1 51 -83 111 -187 l110 -190 133 0 c72 0
132 3 132 6 0 3 -77 125 -171 271 -95 147 -174 273 -176 282 -2 9 68 127 156
265 89 137 161 253 161 258 0 9 -172 11 -219 2 -27 -6 -42 -25 -131 -175 -55
-93 -102 -169 -105 -169 -2 0 -47 77 -100 170 l-96 170 -62 0 c-34 0 -92 3
-129 7 -44 4 -68 2 -68 -4z"/>
</g>
</svg>
