<?xml version="1.0" encoding="UTF-8"?>
<!DOCTYPE svg PUBLIC "-//W3C//DTD SVG 1.1//EN" "http://www.w3.org/Graphics/SVG/1.1/DTD/svg11.dtd">
<svg xmlns="http://www.w3.org/2000/svg" version="1.1" width="1382px" height="242px" style="shape-rendering:geometricPrecision; text-rendering:geometricPrecision; image-rendering:optimizeQuality; fill-rule:evenodd; clip-rule:evenodd" xmlns:xlink="http://www.w3.org/1999/xlink">
<g><path style="opacity:1" fill="#041f41" d="M 383.5,-0.5 C 397.833,-0.5 412.167,-0.5 426.5,-0.5C 426.5,74.1667 426.5,148.833 426.5,223.5C 412.167,223.5 397.833,223.5 383.5,223.5C 383.5,184.833 383.5,146.167 383.5,107.5C 387.309,105.45 391.309,103.784 395.5,102.5C 402.117,106.534 408.617,106.2 415,101.5C 419.767,95.5301 419.6,89.6968 414.5,84C 402.319,77.2293 394.153,80.396 390,93.5C 387.948,94.7929 385.781,95.7929 383.5,96.5C 383.5,64.1667 383.5,31.8333 383.5,-0.5 Z"/></g>
<g><path style="opacity:1" fill="#041f41" d="M 332.5,116.5 C 329.555,118.438 326.388,120.105 323,121.5C 313.738,111.848 304.905,112.181 296.5,122.5C 293.971,122.071 291.638,121.404 289.5,120.5C 289.5,94.5 289.5,68.5 289.5,42.5C 303.833,42.5 318.167,42.5 332.5,42.5C 332.5,67.1667 332.5,91.8333 332.5,116.5 Z"/></g>
<g><path style="opacity:1" fill="#041f41" d="M 248.5,114.5 C 248.44,115.043 248.107,115.376 247.5,115.5C 244.557,114.756 241.557,114.256 238.5,114C 234.386,106.444 228.052,103.444 219.5,105C 213.156,108.185 209.823,113.352 209.5,120.5C 208.378,121.63 207.044,122.297 205.5,122.5C 205.5,101.167 205.5,79.8333 205.5,58.5C 219.833,58.5 234.167,58.5 248.5,58.5C 248.5,77.1667 248.5,95.8333 248.5,114.5 Z"/></g>
<g><path style="opacity:0.968" fill="#7d7d7e" d="M 383.5,107.5 C 366.581,114.695 349.581,121.695 332.5,128.5C 326.615,129.274 322.282,132.274 319.5,137.5C 310.708,142.656 303.375,141.156 297.5,133C 294.832,132.433 292.166,131.933 289.5,131.5C 275.741,129.868 262.074,127.868 248.5,125.5C 244.798,125.019 241.131,124.352 237.5,123.5C 231.831,130.228 224.997,131.895 217,128.5C 212.506,130.321 208.672,132.988 205.5,136.5C 192.249,144.413 179.249,152.746 166.5,161.5C 164.695,162.237 163.029,163.237 161.5,164.5C 158.619,173.194 152.619,176.694 143.5,175C 141.194,173.014 138.528,171.847 135.5,171.5C 131.3,172.217 127.3,173.217 123.5,174.5C 110.558,177.422 97.5577,180.088 84.5,182.5C 79.164,182.333 75.164,184.499 72.5,189C 67.1259,192.88 61.4593,193.38 55.5,190.5C 50.4942,194.178 45.8275,198.178 41.5,202.5C 29.8741,211.621 18.3741,220.954 7,230.5C 4.2651,228.268 2.09843,225.601 0.5,222.5C 13.9733,210.931 27.64,199.597 41.5,188.5C 43.8367,186.334 46.3367,184.334 49,182.5C 50.2052,169.651 57.0385,164.817 69.5,168C 72.2192,169.597 74.3859,171.763 76,174.5C 79.0249,173.806 81.8582,172.806 84.5,171.5C 97.5535,169.089 110.553,166.423 123.5,163.5C 126.91,163.218 130.243,162.551 133.5,161.5C 139.024,149.792 147.19,147.459 158,154.5C 160.988,152.601 163.821,150.601 166.5,148.5C 179.523,139.8 192.523,131.133 205.5,122.5C 207.044,122.297 208.378,121.63 209.5,120.5C 209.823,113.352 213.156,108.185 219.5,105C 228.052,103.444 234.386,106.444 238.5,114C 241.557,114.256 244.557,114.756 247.5,115.5C 248.107,115.376 248.44,115.043 248.5,114.5C 262.128,116.685 275.794,118.685 289.5,120.5C 291.638,121.404 293.971,122.071 296.5,122.5C 304.905,112.181 313.738,111.848 323,121.5C 326.388,120.105 329.555,118.438 332.5,116.5C 349.5,109.833 366.5,103.167 383.5,96.5C 385.781,95.7929 387.948,94.7929 390,93.5C 394.153,80.396 402.319,77.2293 414.5,84C 419.6,89.6968 419.767,95.5301 415,101.5C 408.617,106.2 402.117,106.534 395.5,102.5C 391.309,103.784 387.309,105.45 383.5,107.5 Z"/></g>
<g><path style="opacity:1" fill="#041f41" d="M 166.5,148.5 C 163.821,150.601 160.988,152.601 158,154.5C 147.19,147.459 139.024,149.792 133.5,161.5C 130.243,162.551 126.91,163.218 123.5,163.5C 123.5,137.167 123.5,110.833 123.5,84.5C 137.833,84.5 152.167,84.5 166.5,84.5C 166.5,105.833 166.5,127.167 166.5,148.5 Z"/></g>
<g><path style="opacity:0.952" fill="#000000" d="M 859.5,115.5 C 875.159,113.167 889.492,116.334 902.5,125C 908.921,131.091 911.921,138.591 911.5,147.5C 903.5,147.5 895.5,147.5 887.5,147.5C 887.858,143.05 886.192,139.55 882.5,137C 874.167,132.333 865.833,132.333 857.5,137C 852.254,144.689 853.92,150.356 862.5,154C 876.21,158.014 889.543,163.014 902.5,169C 913.897,177.858 917.731,189.358 914,203.5C 910.364,215.096 902.531,222.263 890.5,225C 872.055,230.022 854.722,227.688 838.5,218C 830.647,210.951 826.981,202.118 827.5,191.5C 835.5,191.5 843.5,191.5 851.5,191.5C 851.892,201.727 857.226,207.227 867.5,208C 874.152,209.035 880.485,208.035 886.5,205C 892.062,198.38 891.728,192.047 885.5,186C 872.45,181.487 859.45,176.82 846.5,172C 830.394,162.348 825.894,148.848 833,131.5C 839.485,122.178 848.318,116.845 859.5,115.5 Z"/></g>
<g><path style="opacity:0.956" fill="#000000" d="M 448.5,116.5 C 465.17,116.333 481.837,116.5 498.5,117C 529.376,121.86 545.043,140.026 545.5,171.5C 545.146,201.335 530.48,219.169 501.5,225C 483.836,225.5 466.17,225.667 448.5,225.5C 448.5,189.167 448.5,152.833 448.5,116.5 Z M 472.5,136.5 C 511.685,132.851 526.852,150.184 518,188.5C 514.245,197.256 507.745,202.756 498.5,205C 489.875,206.201 481.208,206.701 472.5,206.5C 472.5,183.167 472.5,159.833 472.5,136.5 Z"/></g>
<g><path style="opacity:0.966" fill="#000000" d="M 588.5,116.5 C 596.833,116.5 605.167,116.5 613.5,116.5C 626.167,152.833 638.833,189.167 651.5,225.5C 643.472,225.831 635.472,225.498 627.5,224.5C 625.012,217.548 622.679,210.548 620.5,203.5C 607.513,202.334 594.513,202.167 581.5,203C 578.833,210.333 576.167,217.667 573.5,225C 565.5,225.667 557.5,225.667 549.5,225C 562.798,188.941 575.798,152.774 588.5,116.5 Z M 600.5,141.5 C 605.038,154.945 609.705,168.445 614.5,182C 605.506,182.5 596.506,182.666 587.5,182.5C 591.637,168.757 595.97,155.09 600.5,141.5 Z"/></g>
<g><path style="opacity:0.966" fill="#000000" d="M 645.5,116.5 C 672.5,116.5 699.5,116.5 726.5,116.5C 726.5,123.167 726.5,129.833 726.5,136.5C 716.833,136.5 707.167,136.5 697.5,136.5C 697.5,166.167 697.5,195.833 697.5,225.5C 689.833,225.5 682.167,225.5 674.5,225.5C 674.5,195.833 674.5,166.167 674.5,136.5C 664.833,136.5 655.167,136.5 645.5,136.5C 645.5,129.833 645.5,123.167 645.5,116.5 Z"/></g>
<g><path style="opacity:0.965" fill="#000000" d="M 758.5,116.5 C 766.86,116.169 775.193,116.502 783.5,117.5C 796.407,153.388 809.407,189.222 822.5,225C 814.173,225.5 805.84,225.666 797.5,225.5C 795.575,218.057 793.241,210.723 790.5,203.5C 777.5,202.167 764.5,202.167 751.5,203.5C 748.759,210.723 746.425,218.057 744.5,225.5C 736.16,225.666 727.827,225.5 719.5,225C 733.195,189.081 746.195,152.915 758.5,116.5 Z M 770.5,140.5 C 775.131,154.058 779.798,167.725 784.5,181.5C 775.5,182.833 766.5,182.833 757.5,181.5C 762.3,167.961 766.634,154.294 770.5,140.5 Z"/></g>
<g><path style="opacity:0.958" fill="#000000" d="M 932.5,116.5 C 957.167,116.5 981.833,116.5 1006.5,116.5C 1006.5,123.167 1006.5,129.833 1006.5,136.5C 989.833,136.5 973.167,136.5 956.5,136.5C 956.5,144.5 956.5,152.5 956.5,160.5C 971.5,160.5 986.5,160.5 1001.5,160.5C 1001.5,166.833 1001.5,173.167 1001.5,179.5C 986.5,179.5 971.5,179.5 956.5,179.5C 956.5,188.5 956.5,197.5 956.5,206.5C 973.167,206.5 989.833,206.5 1006.5,206.5C 1006.5,212.833 1006.5,219.167 1006.5,225.5C 981.833,225.5 957.167,225.5 932.5,225.5C 932.5,189.167 932.5,152.833 932.5,116.5 Z"/></g>
<g><path style="opacity:0.944" fill="#000000" d="M 1015.5,116.5 C 1042.83,116.5 1070.17,116.5 1097.5,116.5C 1097.5,123.167 1097.5,129.833 1097.5,136.5C 1087.83,136.5 1078.17,136.5 1068.5,136.5C 1068.5,166.167 1068.5,195.833 1068.5,225.5C 1060.5,225.5 1052.5,225.5 1044.5,225.5C 1044.5,195.833 1044.5,166.167 1044.5,136.5C 1035.16,136.666 1025.83,136.5 1016.5,136C 1015.52,129.59 1015.19,123.09 1015.5,116.5 Z"/></g>
<g><path style="opacity:0.961" fill="#000000" d="M 1144.5,116.5 C 1153.51,116.334 1162.51,116.5 1171.5,117C 1181.46,133.083 1191.29,149.25 1201,165.5C 1210.5,149.333 1220,133.167 1229.5,117C 1238.16,116.5 1246.83,116.334 1255.5,116.5C 1255.5,152.833 1255.5,189.167 1255.5,225.5C 1247.83,225.5 1240.17,225.5 1232.5,225.5C 1232.67,199.831 1232.5,174.165 1232,148.5C 1224,162.5 1216,176.5 1208,190.5C 1202.89,191.804 1197.72,191.804 1192.5,190.5C 1184.33,176.833 1176.17,163.167 1168,149.5C 1167.5,174.831 1167.33,200.164 1167.5,225.5C 1159.83,225.5 1152.17,225.5 1144.5,225.5C 1144.5,189.167 1144.5,152.833 1144.5,116.5 Z"/></g>
<g><path style="opacity:0.961" fill="#000000" d="M 1270.5,116.5 C 1279.51,116.334 1288.51,116.5 1297.5,117C 1304.13,128.419 1310.63,139.919 1317,151.5C 1323.71,139.917 1330.54,128.417 1337.5,117C 1346.19,116.168 1354.85,116.335 1363.5,117.5C 1352.75,134.67 1341.75,151.67 1330.5,168.5C 1342.13,187.587 1354.13,206.421 1366.5,225C 1357.17,225.667 1347.83,225.667 1338.5,225C 1331.21,212.916 1324.04,200.749 1317,188.5C 1309.7,200.633 1302.2,212.633 1294.5,224.5C 1285.52,225.665 1276.52,225.832 1267.5,225C 1279.76,206.487 1291.76,187.82 1303.5,169C 1292.61,151.376 1281.61,133.876 1270.5,116.5 Z"/></g>
<g><path style="opacity:1" fill="#041f41" d="M 248.5,125.5 C 248.5,158.5 248.5,191.5 248.5,224.5C 234.167,224.5 219.833,224.5 205.5,224.5C 205.5,195.167 205.5,165.833 205.5,136.5C 208.672,132.988 212.506,130.321 217,128.5C 224.997,131.895 231.831,130.228 237.5,123.5C 241.131,124.352 244.798,125.019 248.5,125.5 Z"/></g>
<g><path style="opacity:1" fill="#041f41" d="M 332.5,128.5 C 332.5,160.5 332.5,192.5 332.5,224.5C 318.167,224.5 303.833,224.5 289.5,224.5C 289.5,193.5 289.5,162.5 289.5,131.5C 292.166,131.933 294.832,132.433 297.5,133C 303.375,141.156 310.708,142.656 319.5,137.5C 322.282,132.274 326.615,129.274 332.5,128.5 Z"/></g>
<g><path style="opacity:1" fill="#041f41" d="M 84.5,171.5 C 81.8582,172.806 79.0249,173.806 76,174.5C 74.3859,171.763 72.2192,169.597 69.5,168C 57.0385,164.817 50.2052,169.651 49,182.5C 46.3367,184.334 43.8367,186.334 41.5,188.5C 41.5,170.167 41.5,151.833 41.5,133.5C 55.8333,133.5 70.1667,133.5 84.5,133.5C 84.5,146.167 84.5,158.833 84.5,171.5 Z"/></g>
<g><path style="opacity:1" fill="#041f41" d="M 166.5,161.5 C 166.5,182.167 166.5,202.833 166.5,223.5C 152.167,223.5 137.833,223.5 123.5,223.5C 123.5,207.167 123.5,190.833 123.5,174.5C 127.3,173.217 131.3,172.217 135.5,171.5C 138.528,171.847 141.194,173.014 143.5,175C 152.619,176.694 158.619,173.194 161.5,164.5C 163.029,163.237 164.695,162.237 166.5,161.5 Z"/></g>
<g><path style="opacity:1" fill="#041f41" d="M 84.5,182.5 C 84.5,196.833 84.5,211.167 84.5,225.5C 70.1667,225.5 55.8333,225.5 41.5,225.5C 41.5,217.833 41.5,210.167 41.5,202.5C 45.8275,198.178 50.4942,194.178 55.5,190.5C 61.4593,193.38 67.1259,192.88 72.5,189C 75.164,184.499 79.164,182.333 84.5,182.5 Z"/></g>
</svg>
